HIERARCHY
ROOT Pelvis
{
	OFFSET 0.000000 0.941512 0.000000
	CHANNELS 6 Xposition Yposition Zposition Zrotation Yrotation Xrotation 
	JOINT Pelvis_L_Hip
	{
		OFFSET 0.000000 0.000000 0.000000
		CHANNELS 3 Zrotation Yrotation Xrotation
		JOINT L_Hip
		{
			OFFSET 0.062321 -0.080322 -0.016990
			CHANNELS 3 Zrotation Yrotation Xrotation
			JOINT L_Knee
			{
				OFFSET 0.093051 -0.381305 -0.029784
				CHANNELS 3 Zrotation Yrotation Xrotation
				JOINT L_Ankle
				{
					OFFSET -0.010371 -0.431000 -0.033614
					CHANNELS 3 Zrotation Yrotation Xrotation
					End Site #name: L_Foot
					{
						OFFSET 0.069299 -0.038670 0.119418
					}
				}
			}
		}
	}
	JOINT Pelvis_R_Hip
	{
		OFFSET 0.000000 0.000000 0.000000
		CHANNELS 3 Zrotation Yrotation Xrotation
		JOINT R_Hip
		{
			OFFSET -0.055334 -0.094904 -0.002373
			CHANNELS 3 Zrotation Yrotation Xrotation
			JOINT R_Knee
			{
				OFFSET -0.064207 -0.384370 -0.019592
				CHANNELS 3 Zrotation Yrotation Xrotation
				JOINT R_Ankle
				{
					OFFSET 0.025418 -0.419734 -0.065953
					CHANNELS 3 Zrotation Yrotation Xrotation
					End Site #name: R_Foot
					{
						OFFSET -0.057233 -0.039888 0.132134
					}
				}
			}
		}
	}
	JOINT Pelvis_Spine1
	{
		OFFSET 0.000000 0.000000 0.000000
		CHANNELS 3 Zrotation Yrotation Xrotation
		JOINT Spine1
		{
			OFFSET -0.005562 0.124093 -0.043360
			CHANNELS 3 Zrotation Yrotation Xrotation
			JOINT Spine2
			{
				OFFSET 0.012244 0.139499 0.029894
				CHANNELS 3 Zrotation Yrotation Xrotation
				JOINT Spine3
				{
					OFFSET -0.002556 0.056561 0.009225
					CHANNELS 3 Zrotation Yrotation Xrotation
					JOINT Spine3_Neck
					{
						OFFSET 0.000000 0.000000 0.000000
						CHANNELS 3 Zrotation Yrotation Xrotation
						JOINT Neck
						{
							OFFSET -0.005205 0.217920 -0.024551
							CHANNELS 3 Zrotation Yrotation Xrotation
							End Site #name: Head
							{
								OFFSET 0.002365 0.091850 0.046637
							}
						}
					}
					JOINT Spine3_L_Collar
					{
						OFFSET 0.000000 0.000000 0.000000
						CHANNELS 3 Zrotation Yrotation Xrotation
						JOINT L_Collar
						{
							OFFSET 0.072225 0.116603 -0.009480
							CHANNELS 3 Zrotation Yrotation Xrotation
							JOINT L_Shoulder
							{
								OFFSET 0.115937 -0.058643 -0.021018
								CHANNELS 3 Zrotation Yrotation Xrotation
								JOINT L_Elbow
								{
									OFFSET 0.021994 -0.254722 -0.024492
									CHANNELS 3 Zrotation Yrotation Xrotation
									End Site #name: L_Wrist
									{
										OFFSET 0.048810 -0.240214 0.103329
									}
								}
							}
						}
					}
					JOINT Spine3_R_Collar
					{
						OFFSET 0.000000 0.000000 0.000000
						CHANNELS 3 Zrotation Yrotation Xrotation
						JOINT R_Collar
						{
							OFFSET -0.073372 0.120704 -0.024611
							CHANNELS 3 Zrotation Yrotation Xrotation
							JOINT R_Shoulder
							{
								OFFSET -0.108089 -0.054969 -0.020504
								CHANNELS 3 Zrotation Yrotation Xrotation
								JOINT R_Elbow
								{
									OFFSET -0.033684 -0.260739 0.009889
									CHANNELS 3 Zrotation Yrotation Xrotation
									End Site #name: R_Wrist
									{
										OFFSET -0.067980 -0.232763 0.118463
									}
								}
							}
						}
					}
				}
			}
		}
	}
}
MOTION
Frames: 8
Frame Time: 0.041667
0.044703 0.879174 0.979387 -8.581356 -12.143602 -0.188243 0.000000 0.000000 0.000000 11.227949 -4.320179 -31.383433 3.709904 -0.498413 3.252221 8.624806 27.316835 4.491098 0.000000 0.000000 0.000000 4.719543 -1.418155 5.758125 -6.332142 3.905705 20.034114 -9.177376 22.575584 -25.358070 0.000000 0.000000 0.000000 11.908549 -3.189164 3.861737 -5.364105 0.813344 -0.603000 2.970853 8.577235 3.569160 0.000000 0.000000 0.000000 -26.363988 13.390898 -1.177080 0.000000 0.000000 0.000000 19.123596 12.351487 12.524044 -4.622746 -0.012992 -3.810911 -1.898770 -0.906588 -0.389930 0.000000 0.000000 0.000000 -28.467894 16.340614 -8.223606 5.255954 3.321166 -17.833854 3.410724 7.529277 -16.123395 
0.054325 0.863947 1.045714 -10.060247 -11.403800 -0.621228 0.000000 0.000000 0.000000 13.494436 -3.998479 -33.262088 -0.738565 -0.036049 9.388137 10.921816 33.919566 8.859367 0.000000 0.000000 0.000000 3.605936 -1.934196 9.168686 -5.284426 4.053302 23.432920 -9.006928 24.685822 -25.663716 0.000000 0.000000 0.000000 9.539881 -2.463220 2.801456 -4.074688 0.662204 0.100842 4.325109 10.352318 3.714916 0.000000 0.000000 0.000000 -26.551218 12.562036 -4.073920 0.000000 0.000000 0.000000 20.080596 14.023516 14.386853 -2.078364 -0.030962 -2.299858 -1.882429 -0.820990 -0.037202 0.000000 0.000000 0.000000 -27.009729 18.077898 -10.205864 6.871784 4.111503 -20.257914 3.304848 9.519906 -21.271701 
0.066478 0.860964 1.116814 -10.732163 -9.896832 -1.389647 0.000000 0.000000 0.000000 15.585485 -3.713976 -34.533431 -6.906708 1.439345 17.327266 9.109018 31.902727 11.172370 0.000000 0.000000 0.000000 0.140710 -1.380061 8.542434 -2.150544 4.108615 33.086984 -2.468138 33.172449 -17.235460 0.000000 0.000000 0.000000 4.986123 -1.282145 1.785965 -2.838543 0.515781 0.895843 5.784219 12.206442 3.457123 0.000000 0.000000 0.000000 -25.915485 11.425804 -6.668101 0.000000 0.000000 0.000000 20.567379 15.260434 15.921566 0.674122 -0.133593 -0.839026 -0.916904 -0.282332 0.532699 0.000000 0.000000 0.000000 -24.848751 19.711029 -12.013248 10.515682 4.782477 -19.724475 3.388768 11.849103 -26.520410 
0.083745 0.872667 1.185079 -10.001935 -7.296010 -3.107903 0.000000 0.000000 0.000000 14.535054 -4.303211 -34.886939 -11.087981 3.209813 26.188921 8.647356 29.330202 7.939319 0.000000 0.000000 0.000000 -7.016783 0.105131 2.741666 3.856229 2.055168 46.952770 20.862987 38.550785 14.331851 0.000000 0.000000 0.000000 -0.037003 -0.047246 0.689708 -3.142984 0.774842 3.621624 7.166338 14.232189 1.661697 0.000000 0.000000 0.000000 -26.793976 11.228639 -7.586344 0.000000 0.000000 0.000000 22.449714 13.895100 16.461535 -0.479662 0.072902 0.292947 1.972028 1.290529 2.467408 0.000000 0.000000 0.000000 -25.228702 23.219754 -15.757164 15.553137 4.682608 -15.309418 2.987545 13.454757 -30.796905 
0.107265 0.887171 1.246315 -10.961198 -4.602678 -4.774740 0.000000 0.000000 0.000000 12.407702 -4.829643 -32.438354 -11.273927 3.467880 30.592402 9.447073 27.449714 2.881044 0.000000 0.000000 0.000000 -11.464707 0.923680 -5.237290 6.580018 0.067063 55.989806 29.471971 22.292583 35.103021 0.000000 0.000000 0.000000 -0.226961 0.044326 0.048857 -3.758814 0.888285 3.494929 8.060856 16.622099 3.178686 0.000000 0.000000 0.000000 -28.718126 11.461537 -8.474778 0.000000 0.000000 0.000000 22.746667 14.756122 18.052027 -1.578344 -0.008054 -1.638102 3.171984 1.802438 2.660710 0.000000 0.000000 0.000000 -26.466423 26.118220 -19.417402 16.821016 4.037063 -12.571737 7.995064 18.224521 -30.818344 
0.128972 0.901390 1.299200 -12.910864 -1.401357 -6.359080 0.000000 0.000000 0.000000 11.345840 -4.753720 -28.354315 -10.619755 2.941477 31.062795 9.508243 24.334991 -0.843797 0.000000 0.000000 0.000000 -12.466014 1.218842 -11.696763 4.130817 0.967807 56.512523 19.817740 11.045082 29.388528 0.000000 0.000000 0.000000 0.711255 -0.088669 -0.577104 -3.800530 0.857189 2.962836 9.242122 18.618002 5.021289 0.000000 0.000000 0.000000 -29.633855 11.131784 -9.763663 0.000000 0.000000 0.000000 21.447747 17.364678 20.115434 -2.385174 -0.170778 -3.816050 3.132420 1.174631 -0.982417 0.000000 0.000000 0.000000 -26.045736 27.498588 -21.421114 15.058545 3.128879 -10.566240 14.636744 23.058150 -28.354676 
0.148635 0.916987 1.344651 -14.627854 4.018207 -8.456048 0.000000 0.000000 0.000000 10.700710 -4.540169 -24.284670 -10.432468 2.306616 30.320315 8.402491 18.555566 -3.258586 0.000000 0.000000 0.000000 -12.411739 1.169556 -14.273382 -2.015924 3.434495 46.945910 14.745316 6.849421 25.026841 0.000000 0.000000 0.000000 0.244082 0.012114 -0.612137 -3.470795 0.764662 2.482194 10.325159 20.134160 6.031846 0.000000 0.000000 0.000000 -29.671563 10.491881 -10.391560 0.000000 0.000000 0.000000 19.989784 18.805530 21.373652 -3.354426 -0.345998 -5.842739 2.217786 -0.152521 -6.017166 0.000000 0.000000 0.000000 -24.933807 26.916714 -21.548612 14.805152 2.118526 -7.231973 16.567840 24.012445 -27.155467 
0.169415 0.927804 1.382288 -16.386410 10.580309 -10.084751 0.000000 0.000000 0.000000 10.611057 -4.370363 -21.554116 -10.760047 1.791543 28.788812 7.390057 12.744713 -4.946099 0.000000 0.000000 0.000000 -12.571933 0.965122 -15.770358 -8.799575 4.998903 32.259838 14.748805 8.529392 24.924412 0.000000 0.000000 0.000000 -0.169604 0.171542 -1.341757 -3.107129 0.681304 2.152684 10.862613 21.587909 6.760429 0.000000 0.000000 0.000000 -29.649737 9.749416 -10.892654 0.000000 0.000000 0.000000 18.625329 19.169003 22.020610 -4.739485 -0.730863 -9.226959 0.863113 -1.279379 -8.213606 0.000000 0.000000 0.000000 -24.166755 25.263204 -20.961717 15.823342 1.083985 -3.448939 14.139230 21.320088 -26.592462 
